HIERARCHY
ROOT Hips
{
	OFFSET 0.000000 0.000000 0.000000
	CHANNELS 6 Xposition Yposition Zposition Zrotation Yrotation Xrotation 
	JOINT LHipJoint
	{
		OFFSET 0.000000 0.000000 0.000000
		CHANNELS 3 Zrotation Yrotation Xrotation
		JOINT LeftUpLeg
		{
			OFFSET 1.363060 -1.794630 0.839290
			CHANNELS 3 Zrotation Yrotation Xrotation
			JOINT LeftLeg
			{
				OFFSET 2.448110 -6.726130 0.000000
				CHANNELS 3 Zrotation Yrotation Xrotation
				JOINT LeftFoot
				{
					OFFSET 2.562200 -7.039590 0.000000
					CHANNELS 3 Zrotation Yrotation Xrotation
					JOINT LeftToeBase
					{
						OFFSET 0.157640 -0.433110 2.322550
						CHANNELS 3 Zrotation Yrotation Xrotation
						End Site
						{
							OFFSET 0.000000 0.000000 0.000000
						}
					}
				}
			}
		}
	}
	JOINT RHipJoint
	{
		OFFSET 0.000000 0.000000 0.000000
		CHANNELS 3 Zrotation Yrotation Xrotation
		JOINT RightUpLeg
		{
			OFFSET -1.305520 -1.794630 0.839290
			CHANNELS 3 Zrotation Yrotation Xrotation
			JOINT RightLeg
			{
				OFFSET -2.542530 -6.985550 0.000000
				CHANNELS 3 Zrotation Yrotation Xrotation
				JOINT RightFoot
				{
					OFFSET -2.568260 -7.056230 0.000000
					CHANNELS 3 Zrotation Yrotation Xrotation
					JOINT RightToeBase
					{
						OFFSET -0.164730 -0.452590 2.363150
						CHANNELS 3 Zrotation Yrotation Xrotation
						End Site
						{
							OFFSET 0.000000 0.000000 0.000000
						}
					}
				}
			}
		}
	}
}
MOTION
Frames: 22
Frame Time: 0.008333
6.224177 16.902313 -7.122813 -171.991734 39.868383 -165.506814 -12.865718 5.302307 1.676849 -9.076529 4.392973 2.987153 -0.649354 2.266073 29.408766 0.194326 -10.764645 17.621112 -4.367599 -0.000000 -38.063300 6.055984 -1.281937 6.201869 14.910636 17.663761 -29.264219 4.235668 -0.465320 14.303806 1.867622 11.241511 5.449142 1.979300 0.000000 -41.037200
6.303472 16.919643 -7.245876 -171.565940 39.346876 -165.401404 -13.062499 5.331155 1.521778 -8.097469 5.809104 1.665796 -0.475342 2.343933 31.693010 0.370568 -10.525422 19.422520 -4.670300 0.000001 -37.340601 6.012331 -1.366495 6.139607 15.605020 17.155746 -28.526566 4.332020 -0.449246 14.391312 1.881779 11.446078 4.875870 1.928600 0.000000 -37.837500
6.382074 16.937551 -7.365078 -171.175493 38.768871 -165.301916 -13.235187 5.332027 1.369435 -7.159557 7.143054 0.261521 -0.320492 2.413543 34.045629 0.547990 -10.052160 21.009848 -4.820700 -0.000000 -36.165800 5.970894 -1.442272 6.089480 16.242238 16.664462 -27.764771 4.431547 -0.409824 14.333928 1.887470 11.583669 4.269309 1.854700 -0.000000 -34.599600
6.459866 16.955909 -7.480477 -170.829092 38.134270 -165.209850 -13.380640 5.305272 1.225773 -6.289268 8.343998 -1.210560 -0.184904 2.479978 36.443593 0.719988 -9.320998 22.314707 -4.781900 0.000000 -34.904700 5.932642 -1.510479 6.050923 16.816160 16.193947 -26.996170 4.528659 -0.351225 14.144134 1.883080 11.632876 3.684345 1.764399 -0.000000 -31.595200
6.536459 16.974517 -7.592480 -170.522643 37.443303 -165.118883 -13.500418 5.252306 1.094509 -5.496800 9.379257 -2.744588 -0.066518 2.548801 38.874045 0.879469 -8.347065 23.256839 -4.541700 0.000000 -33.690600 5.894939 -1.572807 6.024614 17.329504 15.754690 -26.231937 4.620452 -0.276341 13.827039 1.867136 11.570775 3.164668 1.663100 0.000001 -29.000700
6.611518 16.993287 -7.701372 -170.258102 36.698350 -165.029240 -13.595377 5.176316 0.979952 -4.795566 10.221395 -4.331820 0.038721 2.624550 41.318361 1.021416 -7.170365 23.789912 -4.117599 0.000000 -32.741800 5.858460 -1.630837 6.008005 17.782854 15.343561 -25.481061 4.703786 -0.188849 13.395663 1.839683 11.391028 2.744005 1.557500 0.000000 -27.027600
6.684687 17.012121 -7.807555 -170.030426 35.902871 -164.937197 -13.669328 5.080694 0.884496 -4.185207 10.859475 -5.968477 0.135594 2.710528 43.762030 1.141454 -5.858657 23.877507 -3.553400 -0.000000 -32.082900 5.821441 -1.685944 5.999191 18.184101 14.960128 -24.746651 4.778249 -0.090846 12.858699 1.801060 11.092616 2.435577 1.450400 -0.000001 -25.730400
6.755663 17.030916 -7.911369 -169.836320 35.060979 -164.842495 -13.725811 4.969055 0.810080 -3.662941 11.290468 -7.647690 0.228799 2.808057 46.186247 1.236858 -4.489015 23.512913 -2.908800 0.000000 -31.688500 5.783619 -1.738991 5.994456 18.540739 14.596021 -24.028144 4.844251 0.015975 12.227472 1.752581 10.688442 2.237731 1.343300 -0.000000 -25.094700
6.824384 17.049540 -8.012907 -169.677705 34.179038 -164.750585 -13.767408 4.845008 0.757698 -3.224750 11.518817 -9.358132 0.321840 2.916512 48.567825 1.306330 -3.136568 22.715876 -2.246200 -0.000001 -31.482600 5.746544 -1.790189 5.987411 18.860922 14.232885 -23.322245 4.902739 0.129987 11.518791 1.696741 10.207135 2.132706 1.237200 -0.000000 -25.019400
6.890557 17.067844 -8.112611 -169.542090 33.260934 -164.655462 -13.799789 4.710078 0.727944 -2.852190 11.557659 -11.093953 0.417011 3.033460 50.885094 1.349963 -1.869462 21.526112 -1.622300 0.000000 -31.358400 5.706736 -1.839617 5.977235 19.157620 13.871520 -22.619656 4.957118 0.252387 10.730872 1.634920 9.664365 2.102872 1.130100 0.000000 -25.356499
6.954188 17.085628 -8.210499 -169.430324 32.313836 -164.563813 -13.824716 4.566319 0.720687 -2.536347 11.421283 -12.838729 0.514500 3.155333 53.110375 1.369403 -0.732464 20.005985 -1.075500 0.000001 -31.222100 5.666124 -1.886598 5.957493 19.438112 13.492758 -21.912569 5.009086 0.382554 9.877863 1.570358 9.096785 2.120712 1.023301 -0.000000 -25.940700
7.015274 17.102719 -8.306743 -169.335154 31.343157 -164.474562 -13.845293 4.414134 0.735284 -2.260248 11.129548 -14.581251 0.613184 3.278001 55.219681 1.367465 0.247716 18.226853 -0.627200 -0.000000 -30.985200 5.623334 -1.930468 5.926617 19.711429 13.094090 -21.190349 5.061156 0.521557 8.959885 1.505152 8.525815 2.166841 0.917200 0.000000 -26.624200
7.074021 17.118993 -8.401226 -169.261065 30.357502 -164.397894 -13.860743 4.255020 0.770322 -2.018155 10.702407 -16.301355 0.710585 3.397242 57.187031 1.348189 1.068804 16.267622 -0.280000 -0.000000 -30.581200 5.582657 -1.970441 5.877235 19.979552 12.651422 -20.447867 5.113644 0.667640 7.997572 1.443295 7.992243 2.214266 0.816300 0.000001 -27.245000
7.130676 17.134276 -8.493956 -169.205771 29.364013 -164.335661 -13.871856 4.089027 0.823921 -1.797364 10.164700 -17.988616 0.803962 3.509337 58.993813 1.316256 1.741822 14.203043 -0.025501 0.000000 -29.963300 5.544406 -2.006127 5.808507 20.246428 12.162251 -19.679624 5.167147 0.820424 6.995930 1.386872 7.512819 2.253187 0.723300 0.000000 -27.714400
7.185303 17.148480 -8.585000 -169.166167 28.370065 -164.290088 -13.878365 3.916296 0.893513 -1.590494 9.541775 -19.632157 0.890576 3.611247 60.624485 1.276833 2.291216 12.101044 0.152000 0.000000 -29.109100 5.510336 -2.037570 5.718760 20.512311 11.620156 -18.884646 5.221316 0.978201 5.965507 1.338089 7.104043 2.279743 0.641700 -0.000000 -27.988700
7.238158 17.161445 -8.674506 -169.133685 27.383046 -164.253601 -13.882482 3.734966 0.975378 -1.380547 8.863847 -21.233262 0.968334 3.701192 62.072194 1.234637 2.742574 10.015632 0.268700 -0.000000 -28.012500 5.476050 -2.064529 5.615928 20.780389 11.055223 -18.057522 5.276066 1.142356 4.889377 1.295287 6.742899 2.312426 0.568999 0.000000 -28.087800
7.289603 17.173259 -8.762268 -169.119693 26.414004 -164.239097 -13.879495 3.547628 1.067068 -1.178803 8.152340 -22.777723 1.034962 3.777163 63.325900 1.194564 3.134200 7.988980 0.342800 0.000000 -26.690700 5.450331 -2.088561 5.491900 21.042661 10.431151 -17.213857 5.328305 1.305799 3.812627 1.262757 6.467400 2.341513 0.512400 -0.000000 -28.011300
7.339607 17.183849 -8.848638 -169.109917 25.469771 -164.234009 -13.872564 3.351693 1.163990 -0.969896 7.436880 -24.272546 1.089434 3.838907 64.386175 1.159888 3.489142 6.043718 0.384800 -0.000000 -25.163801 5.426291 -2.109759 5.358685 21.301500 9.794376 -16.349506 5.377748 1.470356 2.710699 1.236359 6.232105 2.397493 0.465100 -0.000000 -27.838499
7.388596 17.193378 -8.933478 -169.114453 24.561670 -164.246035 -13.857792 3.149531 1.263873 -0.765141 6.735537 -25.710151 1.130154 3.885474 65.248786 1.133523 3.834766 4.190641 0.404100 -0.000000 -23.464000 5.410375 -2.130294 5.212219 21.549533 9.122209 -15.483980 5.421654 1.629210 1.623684 1.218517 6.058354 2.477768 0.431300 -0.000000 -27.622800
7.436527 17.201897 -9.017065 -169.126302 23.696955 -164.269016 -13.835665 2.940704 1.363469 -0.562873 6.068083 -27.092357 1.156196 3.916814 65.914395 1.116949 4.184634 2.428145 0.404500 -0.000000 -21.624100 5.400702 -2.151293 5.058232 21.784462 8.435207 -14.623888 5.459134 1.780598 0.555420 1.206998 5.924380 2.595506 0.407500 0.000000 -27.435900
7.483702 17.209589 -9.099463 -169.150403 22.884074 -164.304269 -13.804105 2.726899 1.461484 -0.370532 5.445896 -28.416905 1.166392 3.932530 66.382337 1.110960 4.547529 0.748830 0.387601 -0.000000 -19.681300 5.399943 -2.174593 4.896755 22.001545 7.727552 -13.787115 5.489055 1.919841 -0.465032 1.202179 5.836482 2.745468 0.394900 0.000000 -27.325001
7.530175 17.216562 -9.180855 -169.180958 22.128114 -164.344926 -13.764442 2.507186 1.554779 -0.182633 4.881758 -29.685004 1.160146 3.933070 66.654449 1.115073 4.919421 -0.857258 0.352500 -0.000000 -17.676800 5.403606 -2.199859 4.736533 22.200419 7.037995 -12.970906 5.511023 2.048180 -1.449991 1.199506 5.756492 2.936354 0.386300 0.000000 -27.325900
